<svg xmlns="http://www.w3.org/2000/svg" viewBox="0 0 1200 240" width="100%" role="img" aria-label="Alexis Balayre — AI Engineer, real-time speech AI">
  <path d="M0 0 H1200 V184 C1040 210 880 176 720 192 C540 210 320 214 180 198 C110 190 55 194 0 192 Z" fill="#21477f"/>
  <path d="M0 0 H1200 V168 C1040 194 880 160 720 176 C540 194 320 198 180 182 C110 174 55 178 0 176 Z" fill="#102a56"/>
  <path d="M499 124H237L195 0H16L270 702H468L722 0H541ZM455 256 368 513 282 256Z" transform="translate(344.88,110.00) scale(0.0700,-0.0700)" fill="#ffffff"/>
  <path d="M233 740V0H62V740Z" transform="translate(396.48,110.00) scale(0.0700,-0.0700)" fill="#ffffff"/>
  <path d="M585 238H198Q202 186 231.5 158.5Q261 131 304 131Q368 131 393 185H575Q561 130 524.5 86.0Q488 42 433.0 17.0Q378 -8 310 -8Q228 -8 164.0 27.0Q100 62 64.0 127.0Q28 192 28 279Q28 366 63.5 431.0Q99 496 163.0 531.0Q227 566 310 566Q391 566 454.0 532.0Q517 498 552.5 435.0Q588 372 588 288Q588 264 585 238ZM413 333Q413 377 383.0 403.0Q353 429 308 429Q265 429 235.5 404.0Q206 379 199 333Z" transform="translate(417.12,110.00) scale(0.0700,-0.0700)" fill="#ffffff"/>
  <path d="M392 0 285 155 195 0H10L194 285L5 558H197L304 404L394 558H579L392 277L584 0Z" transform="translate(460.25,110.00) scale(0.0700,-0.0700)" fill="#ffffff"/>
  <path d="M46 708Q46 748 74.5 774.5Q103 801 148 801Q192 801 220.5 774.5Q249 748 249 708Q249 669 220.5 642.5Q192 616 148 616Q103 616 74.5 642.5Q46 669 46 708ZM233 558V0H62V558Z" transform="translate(501.41,110.00) scale(0.0700,-0.0700)" fill="#ffffff"/>
  <path d="M32 183H201Q204 154 228.0 136.0Q252 118 287 118Q319 118 336.5 130.5Q354 143 354 163Q354 187 329.0 198.5Q304 210 248 224Q188 238 148.0 253.5Q108 269 79.0 302.5Q50 336 50 393Q50 441 76.5 480.5Q103 520 154.5 543.0Q206 566 277 566Q382 566 442.5 514.0Q503 462 512 376H354Q350 405 328.5 422.0Q307 439 272 439Q242 439 226.0 427.5Q210 416 210 396Q210 372 235.5 360.0Q261 348 315 336Q377 320 416.0 304.5Q455 289 484.5 254.5Q514 220 515 162Q515 113 487.5 74.5Q460 36 408.5 14.0Q357 -8 289 -8Q216 -8 159.0 17.0Q102 42 69.0 85.5Q36 129 32 183Z" transform="translate(522.06,110.00) scale(0.0700,-0.0700)" fill="#ffffff"/>
  <path d="M622 191Q622 103 560.5 51.5Q499 0 389 0H62V702H378Q485 702 545.5 653.0Q606 604 606 520Q606 458 573.5 417.0Q541 376 487 360Q548 347 585.0 299.5Q622 252 622 191ZM233 418H345Q387 418 409.5 436.5Q432 455 432 491Q432 527 409.5 546.0Q387 565 345 565H233ZM449 214Q449 251 424.5 272.0Q400 293 357 293H233V138H359Q402 138 425.5 157.5Q449 177 449 214Z" transform="translate(575.96,110.00) scale(0.0700,-0.0700)" fill="#ffffff"/>
  <path d="M274 566Q333 566 377.5 542.0Q422 518 446 479V558H617V0H446V79Q421 40 376.5 16.0Q332 -8 273 -8Q205 -8 149.0 27.5Q93 63 60.5 128.5Q28 194 28 280Q28 366 60.5 431.0Q93 496 149.0 531.0Q205 566 274 566ZM324 417Q273 417 237.5 380.5Q202 344 202 280Q202 216 237.5 178.5Q273 141 324 141Q375 141 410.5 178.0Q446 215 446 279Q446 343 410.5 380.0Q375 417 324 417Z" transform="translate(622.09,110.00) scale(0.0700,-0.0700)" fill="#ffffff"/>
  <path d="M233 740V0H62V740Z" transform="translate(669.62,110.00) scale(0.0700,-0.0700)" fill="#ffffff"/>
  <path d="M274 566Q333 566 377.5 542.0Q422 518 446 479V558H617V0H446V79Q421 40 376.5 16.0Q332 -8 273 -8Q205 -8 149.0 27.5Q93 63 60.5 128.5Q28 194 28 280Q28 366 60.5 431.0Q93 496 149.0 531.0Q205 566 274 566ZM324 417Q273 417 237.5 380.5Q202 344 202 280Q202 216 237.5 178.5Q273 141 324 141Q375 141 410.5 178.0Q446 215 446 279Q446 343 410.5 380.0Q375 417 324 417Z" transform="translate(690.26,110.00) scale(0.0700,-0.0700)" fill="#ffffff"/>
  <path d="M632 558 282 -265H98L226 19L-1 558H190L319 209L447 558Z" transform="translate(737.79,110.00) scale(0.0700,-0.0700)" fill="#ffffff"/>
  <path d="M408 564V383H361Q297 383 265.0 355.5Q233 328 233 259V0H62V558H233V465Q263 511 308.0 537.5Q353 564 408 564Z" transform="translate(782.03,110.00) scale(0.0700,-0.0700)" fill="#ffffff"/>
  <path d="M585 238H198Q202 186 231.5 158.5Q261 131 304 131Q368 131 393 185H575Q561 130 524.5 86.0Q488 42 433.0 17.0Q378 -8 310 -8Q228 -8 164.0 27.0Q100 62 64.0 127.0Q28 192 28 279Q28 366 63.5 431.0Q99 496 163.0 531.0Q227 566 310 566Q391 566 454.0 532.0Q517 498 552.5 435.0Q588 372 588 288Q588 264 585 238ZM413 333Q413 377 383.0 403.0Q353 429 308 429Q265 429 235.5 404.0Q206 379 199 333Z" transform="translate(812.00,110.00) scale(0.0700,-0.0700)" fill="#ffffff"/>
  <path d="M494 142H203L153 0H34L283 696H415L664 0H544ZM462 235 349 558 235 235Z" transform="translate(365.39,152.00) scale(0.0260,-0.0260)" fill="#cfdcf2"/>
  <path d="M189 695V0H75V695Z" transform="translate(384.01,152.00) scale(0.0260,-0.0260)" fill="#cfdcf2"/>
  <path d="M189 603V399H429V306H189V93H459V0H75V696H459V603Z" transform="translate(398.64,152.00) scale(0.0260,-0.0260)" fill="#cfdcf2"/>
  <path d="M579 325V0H466V308Q466 382 429.0 421.5Q392 461 328 461Q264 461 226.5 421.5Q189 382 189 308V0H75V551H189V488Q217 522 260.5 541.0Q304 560 353 560Q418 560 469.5 533.0Q521 506 550.0 453.0Q579 400 579 325Z" transform="translate(412.76,152.00) scale(0.0260,-0.0260)" fill="#cfdcf2"/>
  <path d="M488 471V551H603V-9Q603 -85 571.0 -144.5Q539 -204 478.5 -238.0Q418 -272 334 -272Q222 -272 148.0 -219.5Q74 -167 64 -77H177Q190 -120 232.5 -146.5Q275 -173 334 -173Q403 -173 445.5 -131.0Q488 -89 488 -9V83Q459 44 409.5 17.5Q360 -9 297 -9Q225 -9 165.5 27.5Q106 64 71.5 129.5Q37 195 37 278Q37 361 71.5 425.0Q106 489 165.5 524.5Q225 560 297 560Q361 560 410.5 534.5Q460 509 488 471ZM321 461Q277 461 239.0 439.5Q201 418 177.5 376.5Q154 335 154 278Q154 221 177.5 178.0Q201 135 239.5 112.5Q278 90 321 90Q365 90 403.0 112.0Q441 134 464.5 176.5Q488 219 488 276Q488 333 464.5 375.0Q441 417 403.0 439.0Q365 461 321 461Z" transform="translate(430.14,152.00) scale(0.0260,-0.0260)" fill="#cfdcf2"/>
  <path d="M60 697Q60 728 81.0 749.0Q102 770 133 770Q163 770 184.0 749.0Q205 728 205 697Q205 666 184.0 645.0Q163 624 133 624Q102 624 81.0 645.0Q60 666 60 697ZM189 551V0H75V551Z" transform="translate(448.26,152.00) scale(0.0260,-0.0260)" fill="#cfdcf2"/>
  <path d="M579 325V0H466V308Q466 382 429.0 421.5Q392 461 328 461Q264 461 226.5 421.5Q189 382 189 308V0H75V551H189V488Q217 522 260.5 541.0Q304 560 353 560Q418 560 469.5 533.0Q521 506 550.0 453.0Q579 400 579 325Z" transform="translate(455.63,152.00) scale(0.0260,-0.0260)" fill="#cfdcf2"/>
  <path d="M576 233H155Q160 167 204.0 127.0Q248 87 312 87Q404 87 442 164H565Q540 88 474.5 39.5Q409 -9 312 -9Q233 -9 170.5 26.5Q108 62 72.5 126.5Q37 191 37 276Q37 361 71.5 425.5Q106 490 168.5 525.0Q231 560 312 560Q390 560 451.0 526.0Q512 492 546.0 430.5Q580 369 580 289Q580 258 576 233ZM461 325Q460 388 416.0 426.0Q372 464 307 464Q248 464 206.0 426.5Q164 389 156 325Z" transform="translate(473.00,152.00) scale(0.0260,-0.0260)" fill="#cfdcf2"/>
  <path d="M576 233H155Q160 167 204.0 127.0Q248 87 312 87Q404 87 442 164H565Q540 88 474.5 39.5Q409 -9 312 -9Q233 -9 170.5 26.5Q108 62 72.5 126.5Q37 191 37 276Q37 361 71.5 425.5Q106 490 168.5 525.0Q231 560 312 560Q390 560 451.0 526.0Q512 492 546.0 430.5Q580 369 580 289Q580 258 576 233ZM461 325Q460 388 416.0 426.0Q372 464 307 464Q248 464 206.0 426.5Q164 389 156 325Z" transform="translate(489.54,152.00) scale(0.0260,-0.0260)" fill="#cfdcf2"/>
  <path d="M354 560V442H325Q258 442 223.5 408.0Q189 374 189 290V0H75V551H189V471Q214 513 255.5 536.5Q297 560 354 560Z" transform="translate(506.08,152.00) scale(0.0260,-0.0260)" fill="#cfdcf2"/>
  <path d="M52 335Q52 366 73.0 387.0Q94 408 125 408Q155 408 176.0 387.0Q197 366 197 335Q197 304 176.0 283.0Q155 262 125 262Q94 262 73.0 283.0Q52 304 52 335Z" transform="translate(531.09,152.00) scale(0.0260,-0.0260)" fill="#cfdcf2"/>
  <path d="M436 0 276 278H189V0H75V695H315Q395 695 450.5 667.0Q506 639 533.5 592.0Q561 545 561 487Q561 419 521.5 363.5Q482 308 400 288L572 0ZM189 369H315Q379 369 411.5 401.0Q444 433 444 487Q444 541 412.0 571.5Q380 602 315 602H189Z" transform="translate(552.45,152.00) scale(0.0260,-0.0260)" fill="#cfdcf2"/>
  <path d="M576 233H155Q160 167 204.0 127.0Q248 87 312 87Q404 87 442 164H565Q540 88 474.5 39.5Q409 -9 312 -9Q233 -9 170.5 26.5Q108 62 72.5 126.5Q37 191 37 276Q37 361 71.5 425.5Q106 490 168.5 525.0Q231 560 312 560Q390 560 451.0 526.0Q512 492 546.0 430.5Q580 369 580 289Q580 258 576 233ZM461 325Q460 388 416.0 426.0Q372 464 307 464Q248 464 206.0 426.5Q164 389 156 325Z" transform="translate(569.38,152.00) scale(0.0260,-0.0260)" fill="#cfdcf2"/>
  <path d="M297 560Q362 560 410.5 534.5Q459 509 488 471V551H603V0H488V82Q459 43 409.0 17.0Q359 -9 295 -9Q224 -9 165.0 27.5Q106 64 71.5 129.5Q37 195 37 278Q37 361 71.5 425.0Q106 489 165.5 524.5Q225 560 297 560ZM321 461Q277 461 239.0 439.5Q201 418 177.5 376.5Q154 335 154 278Q154 221 177.5 178.0Q201 135 239.5 112.5Q278 90 321 90Q365 90 403.0 112.0Q441 134 464.5 176.5Q488 219 488 276Q488 333 464.5 375.0Q441 417 403.0 439.0Q365 461 321 461Z" transform="translate(585.93,152.00) scale(0.0260,-0.0260)" fill="#cfdcf2"/>
  <path d="M189 740V0H75V740Z" transform="translate(604.06,152.00) scale(0.0260,-0.0260)" fill="#cfdcf2"/>
  <path d="M498 410V314H87V410Z" transform="translate(611.42,152.00) scale(0.0260,-0.0260)" fill="#cfdcf2"/>
  <path d="M524 695V602H339V0H225V602H39V695Z" transform="translate(627.13,152.00) scale(0.0260,-0.0260)" fill="#cfdcf2"/>
  <path d="M60 697Q60 728 81.0 749.0Q102 770 133 770Q163 770 184.0 749.0Q205 728 205 697Q205 666 184.0 645.0Q163 624 133 624Q102 624 81.0 645.0Q60 666 60 697ZM189 551V0H75V551Z" transform="translate(642.29,152.00) scale(0.0260,-0.0260)" fill="#cfdcf2"/>
  <path d="M969 325V0H856V308Q856 382 819.0 421.5Q782 461 718 461Q654 461 616.5 421.5Q579 382 579 308V0H466V308Q466 382 429.0 421.5Q392 461 328 461Q264 461 226.5 421.5Q189 382 189 308V0H75V551H189V488Q217 522 260.0 541.0Q303 560 352 560Q418 560 470.0 532.0Q522 504 550 451Q575 501 628.0 530.5Q681 560 742 560Q807 560 858.5 533.0Q910 506 939.5 453.0Q969 400 969 325Z" transform="translate(649.66,152.00) scale(0.0260,-0.0260)" fill="#cfdcf2"/>
  <path d="M576 233H155Q160 167 204.0 127.0Q248 87 312 87Q404 87 442 164H565Q540 88 474.5 39.5Q409 -9 312 -9Q233 -9 170.5 26.5Q108 62 72.5 126.5Q37 191 37 276Q37 361 71.5 425.5Q106 490 168.5 525.0Q231 560 312 560Q390 560 451.0 526.0Q512 492 546.0 430.5Q580 369 580 289Q580 258 576 233ZM461 325Q460 388 416.0 426.0Q372 464 307 464Q248 464 206.0 426.5Q164 389 156 325Z" transform="translate(677.17,152.00) scale(0.0260,-0.0260)" fill="#cfdcf2"/>
  <path d="M58 192H180Q184 147 215.5 118.0Q247 89 304 89Q363 89 396.0 117.5Q429 146 429 191Q429 226 408.5 248.0Q388 270 357.5 282.0Q327 294 273 308Q205 326 162.5 344.5Q120 363 90.0 402.0Q60 441 60 506Q60 566 90.0 611.0Q120 656 174.0 680.0Q228 704 299 704Q400 704 464.5 653.5Q529 603 536 515H410Q407 553 374.0 580.0Q341 607 287 607Q238 607 207.0 582.0Q176 557 176 510Q176 478 195.5 457.5Q215 437 245.0 425.0Q275 413 327 399Q396 380 439.5 361.0Q483 342 513.5 302.5Q544 263 544 197Q544 144 515.5 97.0Q487 50 432.5 21.5Q378 -7 304 -7Q234 -7 178.0 17.5Q122 42 90.0 87.0Q58 132 58 192Z" transform="translate(700.97,152.00) scale(0.0260,-0.0260)" fill="#cfdcf2"/>
  <path d="M381 560Q453 560 512.5 524.5Q572 489 606.0 425.0Q640 361 640 278Q640 195 606.0 129.5Q572 64 512.5 27.5Q453 -9 381 -9Q318 -9 269.0 16.5Q220 42 189 80V-262H75V551H189V470Q218 508 268.0 534.0Q318 560 381 560ZM356 461Q313 461 274.5 439.0Q236 417 212.5 375.0Q189 333 189 276Q189 219 212.5 176.5Q236 134 274.5 112.0Q313 90 356 90Q400 90 438.5 112.5Q477 135 500.5 178.0Q524 221 524 278Q524 335 500.5 376.5Q477 418 438.5 439.5Q400 461 356 461Z" transform="translate(717.18,152.00) scale(0.0260,-0.0260)" fill="#cfdcf2"/>
  <path d="M576 233H155Q160 167 204.0 127.0Q248 87 312 87Q404 87 442 164H565Q540 88 474.5 39.5Q409 -9 312 -9Q233 -9 170.5 26.5Q108 62 72.5 126.5Q37 191 37 276Q37 361 71.5 425.5Q106 490 168.5 525.0Q231 560 312 560Q390 560 451.0 526.0Q512 492 546.0 430.5Q580 369 580 289Q580 258 576 233ZM461 325Q460 388 416.0 426.0Q372 464 307 464Q248 464 206.0 426.5Q164 389 156 325Z" transform="translate(735.31,152.00) scale(0.0260,-0.0260)" fill="#cfdcf2"/>
  <path d="M576 233H155Q160 167 204.0 127.0Q248 87 312 87Q404 87 442 164H565Q540 88 474.5 39.5Q409 -9 312 -9Q233 -9 170.5 26.5Q108 62 72.5 126.5Q37 191 37 276Q37 361 71.5 425.5Q106 490 168.5 525.0Q231 560 312 560Q390 560 451.0 526.0Q512 492 546.0 430.5Q580 369 580 289Q580 258 576 233ZM461 325Q460 388 416.0 426.0Q372 464 307 464Q248 464 206.0 426.5Q164 389 156 325Z" transform="translate(751.85,152.00) scale(0.0260,-0.0260)" fill="#cfdcf2"/>
  <path d="M307 560Q407 560 472.5 512.5Q538 465 561 377H438Q423 418 390.0 441.0Q357 464 307 464Q237 464 195.5 414.5Q154 365 154 276Q154 187 195.5 137.0Q237 87 307 87Q406 87 438 174H561Q537 90 471.0 40.5Q405 -9 307 -9Q228 -9 167.0 26.5Q106 62 71.5 126.5Q37 191 37 276Q37 361 71.5 425.5Q106 490 167.0 525.0Q228 560 307 560Z" transform="translate(768.39,152.00) scale(0.0260,-0.0260)" fill="#cfdcf2"/>
  <path d="M579 325V0H466V308Q466 382 429.0 421.5Q392 461 328 461Q264 461 226.5 421.5Q189 382 189 308V0H75V740H189V487Q218 522 262.5 541.0Q307 560 360 560Q423 560 472.5 533.0Q522 506 550.5 453.0Q579 400 579 325Z" transform="translate(784.49,152.00) scale(0.0260,-0.0260)" fill="#cfdcf2"/>
  <path d="M494 142H203L153 0H34L283 696H415L664 0H544ZM462 235 349 558 235 235Z" transform="translate(809.12,152.00) scale(0.0260,-0.0260)" fill="#cfdcf2"/>
  <path d="M189 695V0H75V695Z" transform="translate(827.75,152.00) scale(0.0260,-0.0260)" fill="#cfdcf2"/>
</svg>
